<?xml version="1.0" encoding="UTF-8"?>
<svg id="Layer_1" xmlns="http://www.w3.org/2000/svg" version="1.1" viewBox="0 0 31.9 32">
  <!-- Generator: Adobe Illustrator 29.0.0, SVG Export Plug-In . SVG Version: 2.1.0 Build 186)  -->
  <defs>
    <style>
      .st0 {
        fill: #c6b3a0;
      }
    </style>
  </defs>
  <g>
    <g>
      <path class="st0" d="M6.7,27.2h0v1.2h.8s-.8,0-.8,0v-1.3Z"/>
      <polygon class="st0" points="7.6 28.5 6.6 28.5 6.6 27.1 6.8 27.1 6.8 28.3 7.6 28.3 7.6 28.5"/>
    </g>
    <g>
      <path class="st0" d="M8.3,27.8h0c0-.3.2-.7.6-.7s.6.3.6.7h0c0,.3-.2.7-.6.7s-.6-.3-.6-.7ZM9.5,27.8h0c0-.3-.2-.6-.6-.6s-.6.3-.6.6h0c0,.3.2.6.6.6s.6-.3.6-.6Z"/>
      <path class="st0" d="M8.9,28.6c-.4,0-.7-.3-.7-.8h0c0-.4.3-.8.7-.8s.7.3.7.8-.3.8-.7.8ZM8.9,27.3c-.3,0-.5.3-.5.5s.2.5.5.5.5-.3.5-.5h0c0-.3-.2-.5-.5-.5Z"/>
    </g>
    <g>
      <path class="st0" d="M10.6,27.2h.9s-.8,0-.8,0v.6h.8s-.8,0-.8,0v.6h0v-1.3Z"/>
      <polygon class="st0" points="10.8 28.5 10.5 28.5 10.5 27.1 11.6 27.1 11.6 27.3 10.8 27.3 10.8 27.7 11.5 27.7 11.5 27.9 10.8 27.9 10.8 28.5"/>
    </g>
    <g>
      <path class="st0" d="M12.8,27.2h-.5s1,0,1,0h0s-.5,0-.5,0v1.2h0v-1.2Z"/>
      <polygon class="st0" points="12.9 28.5 12.7 28.5 12.7 27.3 12.2 27.3 12.2 27.1 13.4 27.1 13.4 27.3 12.9 27.3 12.9 28.5"/>
    </g>
    <g>
      <path class="st0" d="M15.4,27.8h0c0-.4.3-.7.6-.7s.4,0,.5.2h0c-.1,0-.2-.2-.5-.2-.3,0-.6.3-.6.6h0c0,.3.2.6.6.6s.4,0,.5-.2h0c-.1.1-.3.2-.5.2-.4,0-.6-.3-.6-.7Z"/>
      <path class="st0" d="M16,28.6c-.4,0-.7-.3-.7-.8h0c0-.4.3-.8.7-.8s.4.1.6.2h0c0,0-.2.3-.2.3h0c-.1-.2-.2-.2-.4-.2-.3,0-.5.2-.5.5s.2.5.5.5.3,0,.4-.2h0c0,0,.2,0,.2,0h0c-.2.2-.4.3-.6.3Z"/>
    </g>
    <g>
      <path class="st0" d="M17.4,27.8h0c0-.3.2-.7.6-.7s.6.3.6.7h0c0,.3-.2.7-.6.7s-.6-.3-.6-.7ZM18.7,27.8h0c0-.3-.2-.6-.6-.6s-.6.3-.6.6h0c0,.3.2.6.6.6s.6-.3.6-.6Z"/>
      <path class="st0" d="M18.1,28.6c-.4,0-.7-.3-.7-.8h0c0-.4.3-.8.7-.8s.7.3.7.8-.3.8-.7.8ZM18.1,27.3c-.3,0-.5.3-.5.5s.2.5.5.5.5-.3.5-.5h0c0-.3-.2-.5-.5-.5Z"/>
    </g>
    <g>
      <path class="st0" d="M19.7,27.2h0l1,1.2v-1.2h0v1.3h0l-1-1.2v1.2h0v-1.3Z"/>
      <polygon class="st0" points="20.7 28.5 20.7 28.5 19.9 27.5 19.9 28.5 19.6 28.5 19.6 27.1 19.7 27.1 19.8 27.1 19.8 27.1 20.6 28.1 20.6 27.1 20.9 27.1 20.9 28.5 20.8 28.5 20.7 28.5"/>
    </g>
    <g>
      <path class="st0" d="M21.9,27.2h.4c.4,0,.7.3.7.6h0c0,.4-.3.6-.7.6h-.4v-1.3ZM22.3,28.4c.4,0,.6-.3.6-.6h0c0-.3-.3-.6-.6-.6h-.4v1.2h.4Z"/>
      <path class="st0" d="M22.3,28.5h-.5v-1.5h.5c.4,0,.8.3.8.7s-.3.7-.8.7ZM22,28.3h.3c.3,0,.5-.2.5-.5s-.2-.5-.5-.5h-.3v1Z"/>
    </g>
    <g>
      <path class="st0" d="M24,27.8h0c0-.3.2-.7.6-.7s.6.3.6.7h0c0,.3-.2.7-.6.7s-.6-.3-.6-.7ZM25.2,27.8h0c0-.3-.2-.6-.6-.6s-.6.3-.6.6h0c0,.3.2.6.6.6s.6-.3.6-.6Z"/>
      <path class="st0" d="M24.6,28.6c-.4,0-.7-.3-.7-.8h0c0-.4.3-.8.7-.8s.7.3.7.8-.3.8-.7.8ZM24.6,27.3c-.3,0-.5.3-.5.5s.2.5.5.5.5-.3.5-.5h0c0-.3-.2-.5-.5-.5Z"/>
    </g>
  </g>
  <g>
    <g>
      <path class="st0" d="M13.8,22.3c-.5-.5-1-.7-1.7-.7s-1.2.2-1.6.7c-.5.5-.7,1-.7,1.6s.2,1.2.7,1.6c.5.5,1,.7,1.6.7s1.2-.2,1.7-.7.7-1,.7-1.6-.2-1.2-.7-1.6ZM13.1,24.9c-.3.3-.6.4-.9.4s-.7-.1-.9-.4c-.3-.3-.4-.6-.4-.9s.1-.7.4-.9c.3-.3.6-.4.9-.4s.7.1.9.4c.3.3.4.6.4.9s-.1.7-.4.9Z"/>
      <polygon class="st0" points="9.9 21.6 9.9 22.5 8.6 22.5 8.6 26.3 7.7 26.3 7.7 22.5 6.5 22.5 6.5 21.6 9.9 21.6"/>
      <polygon class="st0" points="21.7 22.5 21.7 23.5 23.5 23.5 23.5 24.4 21.7 24.4 21.7 25.4 23.9 25.4 23.9 26.3 20.8 26.3 20.8 21.6 23.9 21.6 23.9 22.5 21.7 22.5"/>
      <path class="st0" d="M27.4,24.3s0,0,0,0c.2-.1.3-.3.5-.5.1-.2.2-.5.2-.7s0-.5-.2-.7c-.1-.2-.3-.4-.5-.5-.2-.1-.4-.2-.7-.2h-2.5v4.7h.9v-1.9h.9l1,1.9h1.4l-1.2-2ZM25.2,22.5h1.5c0,0,.2,0,.2,0,0,0,.1.1.2.2,0,0,0,.2,0,.3,0,.1,0,.2,0,.3,0,0,0,.1-.2.2,0,0-.1,0-.2,0h-1.5v-1.1ZM26.4,24.4h.4c.1,0,.2,0,.3,0l1,1.7h-.8l-.9-1.6Z"/>
      <polygon class="st0" points="20.1 21.6 18.3 25.5 17.9 26.3 17.6 25.5 17.3 25 17.1 25.5 16.8 26.3 16.4 25.5 14.6 21.6 15.3 21.6 16.8 24.7 17 24.2 15.8 21.6 16.5 21.6 17.3 23.5 18.2 21.6 18.9 21.6 17.7 24.2 17.9 24.7 19.4 21.6 20.1 21.6"/>
    </g>
    <path class="st0" d="M3.4,26.3v-4.7h1.1v3.8h1v.8h-2.1Z"/>
  </g>
  <polygon class="st0" points="15.1 20.8 10.5 18.4 10.5 3.4 15.1 6.2 15.1 20.8"/>
  <path class="st0" d="M15.6,20.8v-5.5l5.9-3.1v5.3l-5.9,3.3ZM16.1,15.6v4.4l4.8-2.7v-4.2l-4.8,2.6Z"/>
</svg>